Motion_pu04
version=1
nRows=16
nColumns=43
inDegrees=yes
endheader
time	pelvis_tilt	pelvis_list	pelvis_rotation	pelvis_tx	pelvis_ty	pelvis_tz	hip_flexion_r	hip_adduction_r	hip_rotation_r	knee_angle_r	ankle_angle_r	subtalar_angle_r	mtp_angle_r	hip_flexion_l	hip_adduction_l	hip_rotation_l	knee_angle_l	ankle_angle_l	subtalar_angle_l	mtp_angle_l	lumbar_extension	lumbar_bending	lumbar_rotation	neck_flexion	neck_lateral_bending	neck_rotation	arm_flex_r	arm_add_r	arm_rot_r	elbow_flex_r	pro_sup_r	wrist_flex_r	wrist_dev_r	hand_finger_flex_r	arm_flex_l	arm_add_l	arm_rot_l	elbow_flex_l	pro_sup_l	wrist_flex_l	wrist_dev_l	hand_finger_flex_l
      1.15250000	      0.83232346	     -0.14148829	    -89.05617351	     -0.03200940	      0.84635253	      1.26216277	     -1.27825900	    -12.20876729	    -11.82788440	    -79.31952000	    -13.76173146	    -14.56432049	     -0.25960127	     -4.03539245	    -12.74983732	    -15.61096197	    -70.54319234	    -12.25061963	     -3.80581688	     19.57762921	     18.04657324	     -0.02354548	      6.30154348	     39.50225404	     -7.08562653	    -11.70362578	    -27.11147992	   -159.57445839	   -143.47544116	     40.03987668	    139.75825389	     29.44386386	     -7.41370185	     71.64225938	    146.38273324	    -16.29286558	     29.57375029	     32.15584143	    135.64137775	      4.15764701	     -4.93199016	     78.22462293
      1.15500000	      0.83417156	     -0.33830845	    -89.06405687	     -0.03165847	      0.84723175	      1.26248239	     -1.32690382	    -12.27852670	    -11.85929631	    -79.58413337	    -13.75436024	    -14.58888266	     -0.28683632	     -4.06983339	    -12.80027424	    -15.73662374	    -70.90371781	    -12.25744790	     -3.85456782	     19.51213992	     18.00788687	      0.02578702	      6.31389370	     39.44903110	     -7.17213211	    -11.69836079	    -27.45983133	   -159.56130345	   -143.61117932	     40.16525936	    139.73580525	     29.43520957	     -7.43579159	     71.64780278	    146.06449341	    -16.32009912	     29.56831421	     32.19932137	    135.69063099	      4.18343062	     -4.92877539	     78.22531851
      1.15750000	      0.79982678	     -0.59891727	    -89.15736858	     -0.03158293	      0.84816651	      1.26236267	     -1.40193887	    -12.35583661	    -11.92841784	    -79.85174839	    -13.71005928	    -14.65276063	     -0.37155993	     -4.14221257	    -12.93859087	    -16.05596479	    -71.33309644	    -12.26597736	     -4.02248913	     19.29817276	     17.86216923	      0.07628923	      6.32289754	     39.04998505	     -7.35122510	    -11.68870416	    -27.93740876	   -159.45705934	   -144.12822165	     40.54577973	    139.76638989	     29.37077237	     -7.43671573	     71.66262494	    145.66464869	    -16.35362011	     29.37097929	     32.66923579	    135.81051965	      4.17606972	     -4.93445794	     78.22402271
      1.16000000	      0.79605686	     -0.71058689	    -89.16265488	     -0.03129330	      0.84891317	      1.26331096	     -1.44468031	    -12.37286930	    -11.90905221	    -80.00812279	    -13.69784985	    -14.67012684	     -0.38288561	     -4.22669652	    -12.91771691	    -16.11250501	    -71.50615259	    -12.27232092	     -4.04683939	     19.26646283	     17.92825228	      0.12273056	      6.25320116	     39.02844063	     -7.34303613	    -11.69470172	    -28.19872541	   -159.47602358	   -144.08066736	     40.51120321	    139.77715146	     29.37091289	     -7.43135368	     71.66386943	    145.49801834	    -16.44478871	     29.34998747	     32.63451318	    135.84103176	      4.18762129	     -4.91831568	     78.22418224
      1.16250000	      0.80008831	     -0.89328736	    -89.14376320	     -0.03074025	      0.84997042	      1.26383271	     -1.50926877	    -12.40491075	    -11.92098738	    -80.24642124	    -13.67880264	    -14.69174643	     -0.39704715	     -4.27751513	    -12.91464799	    -16.22733958	    -71.76971390	    -12.27509557	     -4.08371651	     19.22459838	     17.94109332	      0.20330963	      6.22601864	     38.96783053	     -7.35033294	    -11.69617744	    -28.57169933	   -159.53130670	   -144.12605653	     40.58696085	    139.78206315	     29.36238027	     -7.43080033	     71.66539963	    145.14040210	    -16.51563606	     29.34936411	     32.61994783	    135.87743156	      4.21179224	     -4.90843028	     78.22576560
      1.16500000	      0.69092693	     -1.26932760	    -89.29323314	     -0.03082033	      0.85200364	      1.26469462	     -1.83866243	    -12.25845999	    -11.82040536	    -80.21182189	    -13.47607102	    -14.84245755	     -0.64410733	     -4.79842946	    -13.26818508	    -16.95484786	    -71.75270581	    -12.35449992	     -4.61853578	     18.52064155	     17.96032895	      0.39721151	      6.19838671	     37.52939650	     -7.27486499	    -11.73589009	    -29.65138152	   -159.55490506	   -144.96344042	     41.09253056	    140.33757511	     29.04549011	     -7.12109102	     71.69542113	    144.03008466	    -16.68880991	     28.39341569	     33.71037720	    136.37161107	      4.15405511	     -4.72994362	     78.22979299
      1.16750000	      0.66983524	     -1.36121119	    -89.32062187	     -0.03054971	      0.85270363	      1.26556186	     -1.88880289	    -12.25498313	    -11.85654996	    -80.33720671	    -13.48009670	    -14.84326960	     -0.65121616	     -4.84691548	    -13.21816555	    -16.98108367	    -71.91057004	    -12.36310609	     -4.62629262	     18.50281488	     18.03189746	      0.45566989	      6.20482925	     37.55419108	     -7.29246510	    -11.73674527	    -29.83174076	   -159.51069077	   -144.91969761	     41.07376463	    140.34340038	     29.04450174	     -7.11877829	     71.69692073	    143.93846337	    -16.72823318	     28.38891863	     33.66620456	    136.39610377	      4.16785569	     -4.71625004	     78.23068140
      1.17000000	      0.57709851	     -1.69574481	    -89.49590729	     -0.03059323	      0.85405929	      1.26536663	     -1.99634870	    -12.40209877	    -11.98252201	    -80.62329403	    -13.46759185	    -14.84844483	     -0.72777692	     -4.93533356	    -13.41892255	    -17.19174530	    -72.40381413	    -12.40106615	     -4.74261266	     18.29575697	     17.90594552	      0.59677653	      6.32126665	     37.30971270	     -7.48621499	    -11.72332451	    -30.48235714	   -159.34276439	   -145.22188716	     41.50152795	    140.42387657	     28.95432294	     -7.09392868	     71.71347332	    143.29171847	    -16.62847395	     28.20940051	     33.89985394	    136.58166464	      4.21149052	     -4.66158539	     78.23787663
      1.17250000	      0.60070789	     -1.86746026	    -89.46266692	     -0.03016690	      0.85512499	      1.26597334	     -2.04435265	    -12.40548076	    -11.95206457	    -80.83718653	    -13.45267181	    -14.85979591	     -0.74426429	     -5.01806665	    -13.43575219	    -17.29336358	    -72.61241131	    -12.41357458	     -4.76572642	     18.24466133	     17.93746440	      0.64659537	      6.25473102	     37.25281758	     -7.46464351	    -11.73312016	    -30.84289398	   -159.43899277	   -145.21540460	     41.49892080	    140.44049449	     28.94500665	     -7.08851984	     71.71632003	    142.98459249	    -16.71899687	     28.16035263	     33.84984050	    136.64159150	      4.23062880	     -4.62798234	     78.23993763
      1.17500000	      0.57699998	     -1.95676331	    -89.43910514	     -0.02944493	      0.85590317	      1.26660922	     -2.05515749	    -12.39793497	    -11.96993937	    -80.93798249	    -13.44640010	    -14.86164828	     -0.74871671	     -5.08182283	    -13.35804088	    -17.37301661	    -72.76339588	    -12.42478750	     -4.76667245	     18.22929176	     17.98069795	      0.71416705	      6.20283970	     37.22247373	     -7.47281090	    -11.73339606	    -30.98114315	   -159.39650867	   -145.26625759	     41.49256447	    140.44641220	     28.94113415	     -7.08588462	     71.71727769	    142.86354677	    -16.75747142	     28.14351523	     33.85176768	    136.65812526	      4.23588758	     -4.62098099	     78.24098480
      1.17750000	      0.33828349	     -2.49391524	    -89.75265533	     -0.03042587	      0.85884823	      1.26816576	     -2.61578707	    -12.08422174	    -11.86956649	    -80.77958117	    -13.24885678	    -14.81316844	     -1.06150030	     -5.85325490	    -13.84825818	    -18.14234747	    -72.65583931	    -12.58557072	     -5.10612235	     17.30642749	     18.09180411	      1.03744383	      6.21857484	     35.40651684	     -7.18476689	    -11.79495386	    -32.64773984	   -159.44018774	   -146.46348288	     42.11895415	    141.41285407	     28.51913361	     -6.67799225	     71.77487702	    141.19571393	    -16.76280394	     26.62517482	     35.02410391	    137.64971301	      4.21371149	     -4.15346572	     78.29144877
      1.18000000	      0.32759937	     -2.72823169	    -89.75406178	     -0.02979160	      0.86000557	      1.26821269	     -2.65455065	    -12.18407376	    -11.88985041	    -81.06522609	    -13.24396531	    -14.82198279	     -1.09858077	     -5.89989620	    -13.93540119	    -18.28374163	    -73.04765506	    -12.59535183	     -5.12230317	     17.20992651	     18.01103796	      1.11687474	      6.21513094	     35.37812565	     -7.31709545	    -11.78597154	    -32.99241496	   -159.40082153	   -146.52591960	     42.36136053	    141.41074143	     28.49603851	     -6.70839995	     71.78804200	    140.83049870	    -16.80063972	     26.57469938	     35.00210839	    137.79146816	      4.26519393	     -4.10088880	     78.29676916
      1.18250000	      0.27784623	     -3.04858386	    -89.87864548	     -0.02987990	      0.86141010	      1.26795053	     -2.73115812	    -12.24630448	    -11.92502463	    -81.34879157	    -13.19973427	    -14.82405726	     -1.18572215	     -6.03550591	    -14.11570511	    -18.54950203	    -73.45992918	    -12.59556379	     -5.15909315	     16.97022071	     17.83859245	      1.18140965	      6.16080325	     34.99159825	     -7.49607782	    -11.76788535	    -33.63565022	   -159.35315001	   -147.05268300	     42.65803982	    141.49167297	     28.42645775	     -6.72083637	     71.81584999	    140.40615815	    -16.81009464	     26.23822160	     35.47858393	    138.07813990	      4.28292968	     -4.01999256	     78.30931445
      1.18500000	      0.26620511	     -3.15446539	    -89.84823488	     -0.02922303	      0.86232543	      1.26866035	     -2.75156040	    -12.23285575	    -11.92542016	    -81.47158674	    -13.19203964	    -14.82880094	     -1.19018759	     -6.09691600	    -14.03519604	    -18.61455625	    -73.60688255	    -12.60294272	     -5.15380664	     16.95530934	     17.89406252	      1.24800172	      6.10013007	     34.98900044	     -7.48568613	    -11.77041789	    -33.82665090	   -159.35341830	   -147.03000336	     42.61301584	    141.49849822	     28.42929396	     -6.71984129	     71.81726923	    140.27584430	    -16.87271621	     26.22800575	     35.43635150	    138.10536429	      4.29552974	     -4.00500353	     78.31056365
      1.18750000	     -0.04693983	     -3.81444622	    -90.15994385	     -0.02946254	      0.86564021	      1.27029640	     -3.43341668	    -11.91752293	    -11.78153573	    -81.20799980	    -12.97907588	    -14.79422133	     -1.75139547	     -7.07003932	    -14.52708288	    -19.33812663	    -73.44106911	    -12.65074454	     -5.15699064	     15.46823111	     17.85532178	      1.72817278	      6.29056560	     33.43265296	     -7.38941449	    -11.73039392	    -35.17711642	   -159.28731413	   -147.58392292	     43.20742536	    142.73051835	     27.94250414	     -6.38310845	     71.99330106	    138.51356237	    -16.66145546	     24.34582834	     36.51771730	    140.18197474	      4.71004549	     -3.18344527	     78.37934411
      1.19000000	     -0.05827520	     -3.91840318	    -90.17841703	     -0.02919441	      0.86648196	      1.27091651	     -3.49936965	    -11.91213635	    -11.79065224	    -81.38767400	    -12.98043665	    -14.79875310	     -1.75675223	     -7.07276489	    -14.46166017	    -19.39888665	    -73.59934639	    -12.64956664	     -5.15154933	     15.45524074	     17.88669861	      1.77933178	      6.22990829	     33.44533259	     -7.40103321	    -11.73374868	    -35.37852621	   -159.29734713	   -147.56053550	     43.18847041	    142.70728737	     27.94953765	     -6.39871669	     71.99601169	    138.41750117	    -16.74189921	     24.33509123	     36.48916386	    140.20282750	      4.72241959	     -3.17661331	     78.37857086
